<svg xmlns="http://www.w3.org/2000/svg" xmlns:xlink="http://www.w3.org/1999/xlink" width="180" height="40" viewBox="0 0 180 40"><defs><style>.a{fill:none;}.b{fill:#1c1e2a;}</style><symbol id="a" viewBox="0 0 200 200"><rect class="a" width="200" height="200"/><path class="b" d="M103.66,112.41c.54,7,.9,14-.26,20.92-.19,1.14,1.54,1.62,1.73.48,1.2-7.13.88-14.22.33-21.4-.09-1.15-1.89-1.16-1.8,0Z"/><path class="b" d="M106,114.44c.63-.92,1.24-1.85,1.82-2.81l-.84-.22a5,5,0,0,1-1.23,3.88l.84.23a7.59,7.59,0,0,1,.45-1.76c.18-.49-.56-.77-.82-.35l-1.19,1.9a.45.45,0,0,0,.78.46l1.18-1.9-.82-.35a9.12,9.12,0,0,0-.48,2c-.06.49.61.55.84.23a5.72,5.72,0,0,0,1.35-4.34.46.46,0,0,0-.84-.23c-.58.95-1.18,1.89-1.82,2.81-.33.47.45.92.78.45Z"/><path class="b" d="M105.82,116.41l.59-.61c.41-.41-.23-1-.63-.63l-.6.6a.45.45,0,0,0,.64.64Z"/><path class="b" d="M101.08,112.42c.47,1.5,1.19,2.9,2.78,3.41a.45.45,0,0,0,.44-.75,11.06,11.06,0,0,1-2.4-3.24c-.21-.46-1-.13-.82.35.38,1.14,1.48,1.48,2.12,2.41.33.48,1.11,0,.78-.45-.56-.82-1.71-1.24-2-2.2l-.83.35a12,12,0,0,0,2.54,3.41l.44-.75c-1.26-.4-1.78-1.61-2.15-2.78-.18-.55-1-.32-.87.24Z"/><path class="b" d="M104.21,115.64a5,5,0,0,1-2.51-2.74.45.45,0,0,0-.87.24,5.84,5.84,0,0,0,2.93,3.27c.49.31.95-.47.45-.77Z"/><path class="b" d="M104,133.13a3.47,3.47,0,0,1-.73-1.82c-.05-.57-1-.57-.9,0a4.36,4.36,0,0,0,.85,2.28c.34.46,1.13,0,.78-.46Z"/><path class="b" d="M105.34,134.2a15,15,0,0,0,1.34-2.69c.21-.54-.66-.78-.87-.24a13.72,13.72,0,0,1-1.25,2.48c-.31.49.47.94.78.45Z"/><path class="b" d="M104.59,133.64l-.71,1.35c-.27.51.51,1,.78.45l.71-1.34c.27-.52-.51-1-.78-.46Z"/><path class="b" d="M102.9,133.08a7.88,7.88,0,0,1,.83,2.31c.11.56,1,.32.87-.24a8.67,8.67,0,0,0-.92-2.52c-.28-.51-1.06,0-.78.45Z"/><path class="b" d="M104.17,135.74a.45.45,0,0,0,0-.9.45.45,0,0,0,0,.9Z"/><path class="b" d="M102.57,132.41c.21.78.43,1.56.67,2.33.14.44.27,1.1.84,1.15s.81-.59,1-1c.36-.72.71-1.45,1-2.18.24-.53-.53-1-.78-.46s-.42.91-.63,1.36l-.36.72c-.07.14-.34.5-.31.62.18.09.23.07.15-.08a3.58,3.58,0,0,1-.11-.35c-.08-.23-.15-.46-.22-.69-.16-.55-.31-1.09-.45-1.64a.45.45,0,0,0-.87.24Z"/><path class="b" d="M106.92,113.66a.45.45,0,0,0,0-.9.45.45,0,0,0,0,.9Z"/><path class="b" d="M105.2,132.86a.45.45,0,0,0,0-.9.45.45,0,0,0,0,.9Z"/><path class="b" d="M103.82,133a.45.45,0,0,0,0-.9.45.45,0,0,0,0,.9Z"/><path class="b" d="M103.52,132.94a.45.45,0,0,0,0-.9.45.45,0,0,0,0,.9Z"/><path class="b" d="M105.37,132.84a.45.45,0,0,0,0-.9.45.45,0,0,0,0,.9Z"/><path class="b" d="M103.45,132.81a.45.45,0,0,0,0-.9.45.45,0,0,0,0,.9Z"/><path class="b" d="M105.74,115.35a5.57,5.57,0,0,1-.51.46c-.46.36.18,1,.63.64a4.69,4.69,0,0,0,.52-.47.45.45,0,0,0-.64-.63Z"/><path class="b" d="M101.67,112.87a2.82,2.82,0,0,1,.2-.6c.26-.52-.52-1-.77-.46a4,4,0,0,0-.3.82c-.12.56.75.8.87.24Z"/><path class="b" d="M101.63,112.9l.17-.81c.12-.57-.75-.81-.87-.24l-.17.81c-.11.57.75.81.87.24Z"/><path class="b" d="M101.64,112.59a2.17,2.17,0,0,1,.07-.35.45.45,0,0,0-.87-.24,4,4,0,0,0-.1.59c-.06.58.84.58.9,0Z"/></symbol></defs><title>by frederik erichsen</title><use width="200" height="200" transform="matrix(0.74, -0.1, -0.1, -0.74, -96.37, 121.5)" xlink:href="#a"/><path class="a" d="M26.82,12.46c0,1-.79,2-2.36,3.12a12.79,12.79,0,0,1-3.68,1.64h0q4,1.58,4,4.2a3.54,3.54,0,0,1-1.32,2.63,11.26,11.26,0,0,1-5.25,2.66,18.74,18.74,0,0,1-4.33.43,19.26,19.26,0,0,1-4.79-.56A10.18,10.18,0,0,1,7.32,27,9.57,9.57,0,0,1,4,26.81a9.13,9.13,0,0,1-1.15-.43c-.61-.31-.93-.52-1-.66A3.74,3.74,0,0,1,.66,22.87,4.6,4.6,0,0,1,4,18.31,4.08,4.08,0,0,1,6,18.11,3.3,3.3,0,0,1,7.82,19a2.22,2.22,0,0,1,.65,1.82,3.54,3.54,0,0,0-2.62-1.57,3.43,3.43,0,0,0-2.69,1A3.47,3.47,0,0,0,2,22.84a2.62,2.62,0,0,0,.85,2,4.16,4.16,0,0,0,3.35.95l.69-.1A4.4,4.4,0,0,1,4.63,23a1.92,1.92,0,0,1,.59-1.84A1.74,1.74,0,0,1,6,20.8c0,.11,0,.22,0,.33s0,.22,0,.33q0,2.26,2.59,3.67A10.16,10.16,0,0,0,11.69,22c.26-.42.56-.9.89-1.46s.67-1.19,1.05-1.89.77-1.42,1.08-2l.72-1.28q2.43-4,4.86-4.59l.64.11c.21,0,.4.07.57.12a7.67,7.67,0,0,0-.82.75,32.45,32.45,0,0,0-4.07,6.4,28.45,28.45,0,0,1-4.13,6.3c-.29.29-.57.55-.86.79a6.47,6.47,0,0,1-.88.63l1,.11c.34,0,.69.05,1.07.05s1,0,1.49-.08,1-.14,1.59-.25a11.37,11.37,0,0,0,3.91-1.61c1.53-1,2.27-2.12,2.23-3.34q-.16-3-4.2-3.16c-.38,0-.56-.19-.56-.45a.51.51,0,0,1,.23-.37,6,6,0,0,1,.62-.13,11.72,11.72,0,0,0,5.71-2.52Q25,13,24.85,12c-.28-1.38-1.93-2.19-4.92-2.43-3.46-.22-6.18.34-8.18,1.67-.87.59-1.31,1.19-1.31,1.81a1.81,1.81,0,0,0,.17.59c.26.43.83.65,1.7.65a4.08,4.08,0,0,0,1.87-.47,2.87,2.87,0,0,0,1.32-1.3.43.43,0,0,0,.06-.39.5.5,0,0,0-.49-.23,1.67,1.67,0,0,0-.72.21c-.29.14-.45.3-.49.48a.32.32,0,0,1-.17-.27,1,1,0,0,1,.13-.36l.13-.16a1.86,1.86,0,0,1,1.81-.69c.59.11.89.39.89.85a1.8,1.8,0,0,1-.17.63,3.82,3.82,0,0,1-.79,1.05,5.65,5.65,0,0,1-1.1.8,5.32,5.32,0,0,1-1.28.53,5.18,5.18,0,0,1-1.36.18,2.83,2.83,0,0,1-2.79-1.35,1.61,1.61,0,0,1-.13-1c0-.87.61-1.69,1.84-2.46a9.69,9.69,0,0,1,3-1.28,18.17,18.17,0,0,1,4.43-.52,17,17,0,0,1,5.15.78Q26.82,10.4,26.82,12.46Z"/><path class="a" d="M33.22,24.41c0,.26-.19.54-.63.82A15.22,15.22,0,0,1,29,26.81l-1.45,2.36c-.48.81-.86,1.44-1.15,1.9s-.47.75-.55.86Q24.33,34,23.5,33.76c-.43-.11-.65-.53-.65-1.28A5.51,5.51,0,0,1,23.64,30a9.17,9.17,0,0,1,1.62-2.15,8.19,8.19,0,0,1,2.41-1.53l.53-.85A6.5,6.5,0,0,1,25,26.53a3.29,3.29,0,0,1-.55,0c-.44-.06-.59-.33-.46-.79a2.83,2.83,0,0,1,.23-.59q.16-.33.39-.72c.33-.57.76-1.28,1.28-2.13s1.14-1.84,1.84-3c.09-.15.34-.23.75-.23s.69.14.63.4a32,32,0,0,1-2.37,4c-.22.35-.41.68-.59,1a8,8,0,0,0-.42.8.71.71,0,0,0,.29,0,3.92,3.92,0,0,0,1.58-.56c.3-.18.58-.35.82-.51a3.59,3.59,0,0,0,.62-.51,5.35,5.35,0,0,0,.66-.82c.28-.46.6-1,.95-1.57s.74-1.24,1.18-1.94c.13-.22.46-.28,1-.2q.45.07.39.36a1.82,1.82,0,0,1-.13.37,10,10,0,0,1-.89,1.64l-2.39,3.93a10.93,10.93,0,0,0,2.82-1.41C33,24,33.22,24.1,33.22,24.41Zm-6.3,3.15a6.58,6.58,0,0,0-2.27,1.87,5.77,5.77,0,0,0-1.21,2.63,1.36,1.36,0,0,0,0,.42c0,.07.09.09.13.07a3.45,3.45,0,0,0,1-1.15c.43-.61.81-1.17,1.11-1.67s.57-1,.79-1.38Z"/><path class="a" d="M74.71,10.3c.16.87-.32,1.51-1.44,1.9a9,9,0,0,1-2.63.43A20.93,20.93,0,0,1,65.13,12a33.5,33.5,0,0,0-3.67,5.84l0,.1a5,5,0,0,0,2.23-1.08c.7-.57,1.17-.82,1.41-.76a.35.35,0,0,1,.27.33c0,.22-.41.71-1.15,1.48a7.65,7.65,0,0,0-1.31,1.87A5.73,5.73,0,0,0,62.14,22a2.45,2.45,0,0,1-.26-1.41,4,4,0,0,1,.56-1.84,4.78,4.78,0,0,1-1.58.3,25.73,25.73,0,0,1-3.67,5.44A8.18,8.18,0,0,1,52.07,27a9.84,9.84,0,0,1-3.32-.16c-1.24-.31-1.94-.67-2.1-1.09a3.77,3.77,0,0,1-1.24-2.85,4.59,4.59,0,0,1,3.34-4.56,3.93,3.93,0,0,1,1.91-.2,3.43,3.43,0,0,1,1.87.87,2.1,2.1,0,0,1,.65,1.82,3.45,3.45,0,0,0-5.35-.56,3.47,3.47,0,0,0-1.14,2.6,2.61,2.61,0,0,0,.91,2,4.17,4.17,0,0,0,3.35.95,5.86,5.86,0,0,0,2.69-.92c1.4-1,3-3,4.63-6.1a18.76,18.76,0,0,0-2.2-.2,1.7,1.7,0,0,0-.56.07.12.12,0,0,1-.16,0,.26.26,0,0,1-.07-.17,10.82,10.82,0,0,1,3.35-.42l.58-1,.93-1.68a12.73,12.73,0,0,1,3.12-3.8,30,30,0,0,0-7.32-1.35,7.23,7.23,0,0,0-2.82.62,2.93,2.93,0,0,0-1.81,2.07,1.58,1.58,0,0,0,.86,1.84,3.65,3.65,0,0,0,2.16.49,4.13,4.13,0,0,0,1.92-.64,3,3,0,0,0,1.3-1.46.7.7,0,0,0,.07-.49.73.73,0,0,0-.56-.39,1.4,1.4,0,0,0-1.22.39.93.93,0,0,0-.29.46c-.31-.2-.34-.49-.1-.89a2,2,0,0,1,1-.82,2,2,0,0,1,1.32-.13,1.56,1.56,0,0,1,1.08.76,1.59,1.59,0,0,1,0,1.28A4.65,4.65,0,0,1,58,14.48a5.77,5.77,0,0,1-1.1.94,6.54,6.54,0,0,1-1.33.64,5.24,5.24,0,0,1-1.44.28q-3.2.16-4.3-2.1a2.25,2.25,0,0,1-.17-1.74A4.08,4.08,0,0,1,51,10.4a6.53,6.53,0,0,1,2.2-1.35,10.1,10.1,0,0,1,3.51-.56c.57,0,1.18,0,1.84.1s2.47.35,5,.79l2.26.39a41,41,0,0,0,7.72.76l.56-.08A4.41,4.41,0,0,0,74.71,10.3Z"/><path class="a" d="M71,23.69c.06.28-.31.79-1.12,1.51l-.72.52a5.13,5.13,0,0,1-2.2,1c-.85,0-1.34-.47-1.48-1.41A4.75,4.75,0,0,1,66.28,23l.82-1.48.26-.62a6.71,6.71,0,0,0-.67-.27l-.54-.16c-.31.63-.72,1.43-1.25,2.4a8.31,8.31,0,0,1-1.08,1.34c-.61.66-1,1-1.25,1-.44,0-.63-.2-.59-.59l.16-.17c.27-.24.56-.53.89-.88s.7-.77,1.12-1.25a6.29,6.29,0,0,0,.37-.62c.1-.2.19-.41.28-.63a11.69,11.69,0,0,0,.56-1.83l.1-.66a3.46,3.46,0,0,0,.13-.56.58.58,0,0,1,.43-.33c.26-.06.46.05.6.35a1.19,1.19,0,0,1,.12.83l-.1.46a1.42,1.42,0,0,0,.43.2l.1-.06a5,5,0,0,1,.54.21l.51.21.78.2a.63.63,0,0,1,.3.43,3.33,3.33,0,0,1-.53,1.14L68,23.07c-.78,1.42-1.08,2.24-.88,2.46s.52.06,1.18-.33a26.56,26.56,0,0,0,2.1-1.68.53.53,0,0,1,.46,0A.31.31,0,0,1,71,23.69Z"/><path class="a" d="M77.8,24.41c0,.29-.22.58-.72.89a9.25,9.25,0,0,1-4.27,1.34c-1.53.07-2.39-.51-2.56-1.74a4.85,4.85,0,0,1,1-3.28,6.74,6.74,0,0,1,.82-1,7.45,7.45,0,0,1,1-.9,2.86,2.86,0,0,1,2.42-.79,1.61,1.61,0,0,1,1,.72,1.74,1.74,0,0,1,.21,1.28,3.49,3.49,0,0,1-.59,1.35,3.92,3.92,0,0,1-2.89,1.64,1.57,1.57,0,0,1-1.25-.33c-.1,1.09.42,1.68,1.58,1.77a5.3,5.3,0,0,0,3-.92,3.84,3.84,0,0,1,.59-.33C77.6,24,77.8,24.1,77.8,24.41Zm-2.17-3.08c.2-.73-.06-1.09-.79-1.09a2.4,2.4,0,0,0-1.73,1.12c-.6.77-.88,1.26-.86,1.48s.22.21.59.26A2.61,2.61,0,0,0,74,22.87a3.14,3.14,0,0,0,1.67-1.51Z"/><path class="a" d="M88.83,15.06a8.63,8.63,0,0,1-.92,1.74L83.8,23.49a12.1,12.1,0,0,0-1,1.77q.36.16,1.38-.42l1.34-.76c.35-.08.56,0,.62.33s-.45.72-1.37,1.25a5.37,5.37,0,0,1-3.25.85c-.4,0-.54-.32-.43-.88v-.07a3.26,3.26,0,0,1-2.16,1c-1,0-1.49-.56-1.65-1.68-.19-1.44.46-2.94,2-4.49a4.13,4.13,0,0,1,2.83-1.55c1.18,0,1.69.76,1.54,2.27l2.16-3.61.74-1.22c.28-.43.59-.9.94-1.41a1.07,1.07,0,0,1,1-.19C88.73,14.76,88.87,14.88,88.83,15.06Zm-6.11,7.32a2.57,2.57,0,0,0,0-1.35.85.85,0,0,0-.88-.79,2.51,2.51,0,0,0-1.94,1.28,4.06,4.06,0,0,0-.88,2.3q0,1.35,1.08,1.35A2.47,2.47,0,0,0,82,23.85l.16-.29a3.59,3.59,0,0,0,.27-.49Z"/><path class="a" d="M93.13,24.41c0,.29-.22.58-.73.89a9.17,9.17,0,0,1-4.26,1.34c-1.53.07-2.39-.51-2.56-1.74a4.83,4.83,0,0,1,1-3.28,6.81,6.81,0,0,1,.83-1,8,8,0,0,1,1-.9,2.89,2.89,0,0,1,2.43-.79,1.57,1.57,0,0,1,1,.72,1.74,1.74,0,0,1,.22,1.28,3.64,3.64,0,0,1-.59,1.35,3.92,3.92,0,0,1-2.89,1.64,1.56,1.56,0,0,1-1.25-.33c-.11,1.09.42,1.68,1.58,1.77a5.27,5.27,0,0,0,3-.92,5.07,5.07,0,0,1,.59-.33C92.93,24,93.13,24.1,93.13,24.41ZM91,21.33c.2-.73-.07-1.09-.79-1.09a2.4,2.4,0,0,0-1.74,1.12c-.59.77-.87,1.26-.85,1.48s.22.21.59.26a2.61,2.61,0,0,0,1.12-.23A3.14,3.14,0,0,0,91,21.36Z"/><path class="a" d="M100.9,23.69c.07.28-.3.79-1.11,1.51l-.72.52a5.18,5.18,0,0,1-2.2,1c-.86,0-1.35-.47-1.48-1.41A4.71,4.71,0,0,1,96.14,23L97,21.49l.27-.62a6.83,6.83,0,0,0-.68-.27L96,20.44c-.3.63-.72,1.43-1.24,2.4a8.45,8.45,0,0,1-1.09,1.34c-.61.66-1,1-1.24,1-.44,0-.64-.2-.59-.59l.16-.17c.26-.24.56-.53.89-.88s.7-.77,1.11-1.25a6.53,6.53,0,0,0,.38-.62c.1-.2.19-.41.28-.63a12.92,12.92,0,0,0,.56-1.83l.09-.66a2.21,2.21,0,0,0,.14-.56.57.57,0,0,1,.42-.33.51.51,0,0,1,.61.35,1.18,1.18,0,0,1,.11.83l-.09.46a1.31,1.31,0,0,0,.42.2l.1-.06a3.73,3.73,0,0,1,.54.21l.51.21.79.2a.61.61,0,0,1,.29.43,3.2,3.2,0,0,1-.52,1.14l-.82,1.42c-.79,1.42-1.08,2.24-.89,2.46s.53.06,1.18-.33a26.56,26.56,0,0,0,2.1-1.68.54.54,0,0,1,.46,0A.29.29,0,0,1,100.9,23.69Z"/><path class="a" d="M104.61,24.41c0,.31-.47.72-1.41,1.25a5.23,5.23,0,0,1-3.18.85c-.42,0-.57-.32-.46-.88q0-.14,1.08-2.07l.89-1.54c.22-.4.46-.81.73-1.25s.6-.91,1-1.41a1.05,1.05,0,0,1,1-.2c.33.07.48.19.43.36a44.35,44.35,0,0,1-2.33,4,14.78,14.78,0,0,0-1,1.77q.4.16,1.41-.42l1.35-.76C104.41,24,104.61,24.1,104.61,24.41Zm2.2-8.11a1.88,1.88,0,0,1-.36,1c-.61.94-1.26,1.41-1.94,1.41a.41.41,0,0,1-.46-.46,1.86,1.86,0,0,1,.36-.95c.62-.94,1.26-1.41,1.94-1.41A.4.4,0,0,1,106.81,16.3Z"/><path class="a" d="M113.54,13.61a4.17,4.17,0,0,1-.49,1.78,6.33,6.33,0,0,1-2.86,3,3.44,3.44,0,0,1-.54.25l-.67.28-.46.75a3.61,3.61,0,0,1,1.93-.72c1,.07,1.55.53,1.55,1.38a2.29,2.29,0,0,1-.4,1.21A2.93,2.93,0,0,1,110,23c-.11,0-.17.07-.17.1l.15.09a1.7,1.7,0,0,1,.23.17.76.76,0,0,1,.18.18s0,.09,0,.11a1.49,1.49,0,0,1-.43.82,1.87,1.87,0,0,0-.42.66c0,.07,0,.1.13.1a13.88,13.88,0,0,0,2.07-1.12c.37-.11.55,0,.55.33s-.42.8-1.28,1.22l-.8.36-1,.42c-1.1.24-1.71.17-1.84-.23s0-.64.39-1.15a6.27,6.27,0,0,0,.53-.72c.11-.17.17-.28.2-.33l.06-.19a.17.17,0,0,0-.08-.13.78.78,0,0,0-.44-.07l-1.35.05a2.44,2.44,0,0,1-.62,0l-.86,1.45-.32.59a5,5,0,0,1-.61.79,1.27,1.27,0,0,1-1,.13c-.17,0-.27,0-.29-.1s0-.26.09-.53.45-.72.69-1.13.48-.82.72-1.26c.16-.24.45-.73.88-1.48s1-1.74,1.75-3c-.66-.1-1-.35-1.15-.72l.25.05.28,0a5.13,5.13,0,0,0,1.08-.13l.49-.82,1.22-2,.49-.79.59-1,.23-.33c.7-1,1.36-1.37,2-1.21S113.54,12.76,113.54,13.61ZM110.06,21c0-.46-.25-.69-.76-.69a2.55,2.55,0,0,0-1.8,1l-1,1.54C108.89,22.76,110.06,22.15,110.06,21ZM113,13.65a1.13,1.13,0,0,0,0-.32.15.15,0,0,0-.18-.11c-.38.11-.91.81-1.61,2.1h0c0,.09-.13.25-.27.49s-.31.55-.55.92l-.59,1a6.3,6.3,0,0,0,1.24-.69,5.67,5.67,0,0,0,1-1,5.81,5.81,0,0,0,.72-1.15A3.08,3.08,0,0,0,113,13.65Z"/><path class="a" d="M137.17,9.31c.17,1,.12,1.69-.17,2a4.36,4.36,0,0,1-3.44,1.32,10.88,10.88,0,0,1-3.55-.73,5.35,5.35,0,0,1-.85-.39,2.87,2.87,0,0,0-1.18,2,1.71,1.71,0,0,0,.88,1.44,2.71,2.71,0,0,0,1.68.56,19.07,19.07,0,0,0,2.1-.2l.26,0c-.09,1-1.11,1.41-3.08,1.21a22.92,22.92,0,0,0-9.55,3.35,3.42,3.42,0,0,0-1.68,2.07q-.16,1.63,2.43,2.46a8.84,8.84,0,0,0,2.59.39,10.73,10.73,0,0,0,3.84-.75,5.58,5.58,0,0,0,3-2.3l.2-.3a.4.4,0,0,1,.23.27,9.85,9.85,0,0,1-.26,1.44A4.36,4.36,0,0,1,129,25.59a8.4,8.4,0,0,1-1.54.82,10,10,0,0,1-3.81.76c-2.71,0-4.7-.87-6-2.59a4.06,4.06,0,0,1-.69-2.14c-.07-1.81,1-3.43,3.22-4.86a16.94,16.94,0,0,1,5-1.67l.81-.13c.29,0,.61-.08,1-.1a2.29,2.29,0,0,1-.95-2.1,3.56,3.56,0,0,1,1.68-2.92l-.5-.36a2,2,0,0,1-.69-1.45c0-1.13.48-1.65,1.45-1.54s1.32.45,1.15,1.15a1,1,0,0,0-1-.62.77.77,0,0,0-.79.65c-.13.66.32,1.15,1.35,1.48l.56-.36a9.44,9.44,0,0,1,5.28-1.81C136.12,7.76,137,8.26,137.17,9.31Zm-.63.14c0-.16-.27-.23-.75-.23a9.44,9.44,0,0,0-3.41.49,7.28,7.28,0,0,0-.82.28l-1.45.57c.09.31,1.07.44,3,.4S136.17,10.43,136.54,9.45Z"/><path class="a" d="M139.37,23.69c.06.28-.31.79-1.12,1.51l-.72.52a5.13,5.13,0,0,1-2.2,1,1.4,1.4,0,0,1-1.48-1.41,4.75,4.75,0,0,1,.76-2.33l.82-1.48.26-.62c-.24-.11-.47-.2-.67-.27l-.54-.16c-.31.63-.73,1.43-1.25,2.4a8.31,8.31,0,0,1-1.08,1.34c-.62.66-1,1-1.25,1-.44,0-.64-.2-.59-.59l.16-.17c.26-.24.56-.53.89-.88s.7-.77,1.11-1.25a5,5,0,0,0,.38-.62c.1-.2.19-.41.28-.63a11.69,11.69,0,0,0,.56-1.83l.1-.66a3.46,3.46,0,0,0,.13-.56.59.59,0,0,1,.42-.33A.51.51,0,0,1,135,18a1.24,1.24,0,0,1,.12.83l-.1.46a1.31,1.31,0,0,0,.42.2l.1-.06a3.73,3.73,0,0,1,.54.21l.51.21.79.2a.66.66,0,0,1,.3.43,3.58,3.58,0,0,1-.53,1.14l-.82,1.42c-.79,1.42-1.08,2.24-.89,2.46s.53.06,1.19-.33q.28-.16,2.1-1.68a.53.53,0,0,1,.46,0A.31.31,0,0,1,139.37,23.69Z"/><path class="a" d="M143.07,24.41c0,.31-.47.72-1.41,1.25a5.23,5.23,0,0,1-3.18.85c-.42,0-.57-.32-.46-.88q0-.14,1.08-2.07L140,22c.22-.4.46-.81.74-1.25s.59-.91,1-1.41a1,1,0,0,1,1-.2q.49.11.42.36a44.35,44.35,0,0,1-2.33,4,12.1,12.1,0,0,0-1,1.77q.39.16,1.41-.42l1.34-.76C142.88,24,143.07,24.1,143.07,24.41Zm2.2-8.11a1.88,1.88,0,0,1-.36,1c-.61.94-1.26,1.41-1.93,1.41a.4.4,0,0,1-.46-.46,1.86,1.86,0,0,1,.36-.95c.61-.94,1.25-1.41,1.93-1.41A.4.4,0,0,1,145.27,16.3Z"/><path class="a" d="M150.06,24.41a.66.66,0,0,1-.19.49c-.22.16-.43.29-.63.41l-.55.35a8.4,8.4,0,0,1-3.65,1q-2.26.11-2.52-1.74-.27-2.13,2-4.49a4,4,0,0,1,2.85-1.55,1.75,1.75,0,0,1,.85.2,1.67,1.67,0,0,1,.59.53,1.62,1.62,0,0,1,.17,1.54,2.47,2.47,0,0,1-.85,1,2.58,2.58,0,0,1-1.22.51,2.54,2.54,0,0,0,1-1.31c.15-.73-.11-1.09-.79-1.09a2.55,2.55,0,0,0-1.77,1.15,4.14,4.14,0,0,0-1.05,2.43c0,.94.52,1.44,1.57,1.51a6.6,6.6,0,0,0,3.61-1.25C149.87,24,150.06,24.1,150.06,24.41Z"/><path class="a" d="M159,13.61a4,4,0,0,1-.49,1.78,6.33,6.33,0,0,1-2.86,3,3.44,3.44,0,0,1-.54.25l-.67.28-.62,1a3.82,3.82,0,0,1,2.36-1c.72.07,1.06.59,1,1.58a5.2,5.2,0,0,1-1,2.49l-1.11,1.61a1.27,1.27,0,0,0-.33.62c0,.07,0,.1.1.1a5.89,5.89,0,0,0,1.48-.75,3.57,3.57,0,0,1,.68-.4.53.53,0,0,1,.2,0q.39,0,.33.36c0,.09-.06.25-.23.49a9.48,9.48,0,0,1-3,1.54c-1.12.27-1.72.19-1.8-.23s.33-1.06,1.21-2.26a10.34,10.34,0,0,0,1.54-2.56c.16-.74-.05-1.12-.62-1.12s-1.12.42-1.91,1.25l-2.39,4a3.12,3.12,0,0,1-.57.77,1.33,1.33,0,0,1-1,.15c-.17,0-.27,0-.29-.1s0-.26.1-.53.45-.72.69-1.13.48-.82.72-1.26c.15-.24.44-.73.87-1.48s1-1.74,1.75-3c-.65-.1-1-.35-1.14-.72l.24.05.28,0a5.13,5.13,0,0,0,1.08-.13l.5-.82,1.21-2,.49-.79.59-1,.23-.33c.7-1,1.36-1.37,2-1.21S159,12.76,159,13.61Zm-.59,0a1.13,1.13,0,0,0-.05-.32.14.14,0,0,0-.18-.11c-.37.11-.91.81-1.61,2.1h0c0,.09-.13.25-.26.49s-.32.55-.56.92l-.59,1a6.38,6.38,0,0,0,1.25-.69,5.94,5.94,0,0,0,1-1,5.81,5.81,0,0,0,.72-1.15A2.93,2.93,0,0,0,158.4,13.65Z"/><path class="a" d="M164.9,23.69c.06.33-.31.83-1.12,1.51a5.23,5.23,0,0,1-.9.64c-.36.21-.76.42-1.2.64a6.83,6.83,0,0,1-2.26.39h-.1a2.84,2.84,0,0,1-1.38-.36,1.4,1.4,0,0,1-.79-1.11,2.34,2.34,0,0,1,.13-.73,2.69,2.69,0,0,1-.72.53c-.44,0-.63-.2-.59-.59l.2-.17a10.84,10.84,0,0,0,.82-.83c.33-.36.71-.8,1.15-1.3a8.31,8.31,0,0,0,1.21-3.08l.26-1.25a.65.65,0,0,1,.5-.3.55.55,0,0,1,.54.41,1.5,1.5,0,0,1,.08.77l-.07.2c.07.24.42.42,1.05.53a1,1,0,0,1,.27,0,.52.52,0,0,1-.13.26,2.6,2.6,0,0,0-.4,1.58l.53,2.16c0,.18,0,.35.05.51a2.5,2.5,0,0,1,0,.48c0,.13,0,.26-.07.38a1.89,1.89,0,0,1-.09.34,17.52,17.52,0,0,0,2.36-1.81.53.53,0,0,1,.46,0C164.8,23.54,164.88,23.6,164.9,23.69Zm-4.43,1.41a3.35,3.35,0,0,0-.2-1.48l-.46-2.43a.36.36,0,0,1-.1.2,20.68,20.68,0,0,1-1.57,2.46.51.51,0,0,1,.54.17.57.57,0,0,1,.08.56,1.34,1.34,0,0,1-.31.5.85.85,0,0,0-.25.45.53.53,0,0,0,.3.42,1.26,1.26,0,0,0,1.25,0A1,1,0,0,0,160.47,25.1Z"/><path class="a" d="M171.53,24.41c0,.29-.22.58-.72.89a9.25,9.25,0,0,1-4.27,1.34c-1.53.07-2.39-.51-2.56-1.74a4.85,4.85,0,0,1,1-3.28,6.74,6.74,0,0,1,.82-1,8,8,0,0,1,1-.9,2.89,2.89,0,0,1,2.43-.79,1.61,1.61,0,0,1,1,.72,1.74,1.74,0,0,1,.21,1.28,3.49,3.49,0,0,1-.59,1.35A3.92,3.92,0,0,1,167,23.89a1.57,1.57,0,0,1-1.25-.33c-.11,1.09.42,1.68,1.58,1.77a5.3,5.3,0,0,0,3-.92,3.84,3.84,0,0,1,.59-.33C171.33,24,171.53,24.1,171.53,24.41Zm-2.17-3.08c.2-.73-.06-1.09-.79-1.09a2.42,2.42,0,0,0-1.74,1.12c-.59.77-.87,1.26-.85,1.48s.22.21.59.26a2.61,2.61,0,0,0,1.12-.23,3.14,3.14,0,0,0,1.67-1.51Z"/><path class="a" d="M179.34,24.44a1.73,1.73,0,0,1-.26.53,10.83,10.83,0,0,1-3,1.54c-1.12.22-1.72.14-1.81-.23s.29-1.1,1.18-2.26A9.61,9.61,0,0,0,177,21.39c.13-.74,0-1.11-.53-1.11s-1.39.52-2.26,1.57l-.54.87-1,1.56-.49.79-.33.59a4.45,4.45,0,0,1-.61.79,1.26,1.26,0,0,1-1,.13c-.17,0-.27,0-.29-.1s0-.26.1-.53l1.28-2.16.13-.23,1.11-1.87a18.65,18.65,0,0,1,1.68-2.63,1,1,0,0,1,1-.2c.31.05.44.17.4.37s-.11.29-.2.49a4.07,4.07,0,0,1,2.17-.89c.87,0,1.3.53,1.27,1.58a5.37,5.37,0,0,1-.95,2.52l-1.15,1.61a1.36,1.36,0,0,0-.32.66s0,.06.09.06.78-.38,2.2-1.14C179.16,24,179.34,24.14,179.34,24.44Z"/><path class="b" d="M35,25.75a.83.83,0,0,0,0-1.65.83.83,0,0,0,0,1.65Z"/><path class="b" d="M35,21.37a.82.82,0,0,0,0-1.64.82.82,0,0,0,0,1.64Z"/></svg>