<svg xmlns="http://www.w3.org/2000/svg" xmlns:xlink="http://www.w3.org/1999/xlink" width="60" height="60" viewBox="0 0 60 60"><defs><style>.a{fill:none;}.b{fill:#1c1e2a;}</style><symbol id="a" viewBox="0 0 200 200"><rect class="a" width="200" height="200"/><path class="b" d="M103.66,112.41c.54,7,.9,14-.26,20.92-.19,1.14,1.54,1.62,1.73.48,1.2-7.13.88-14.22.33-21.4-.09-1.15-1.89-1.16-1.8,0Z"/><path class="b" d="M106,114.44c.63-.92,1.24-1.85,1.82-2.81l-.84-.22a5,5,0,0,1-1.23,3.88l.84.23a7.59,7.59,0,0,1,.45-1.76c.18-.49-.56-.77-.82-.35l-1.19,1.9a.45.45,0,0,0,.78.46l1.18-1.9-.82-.35a9.12,9.12,0,0,0-.48,2c-.06.49.61.55.84.23a5.72,5.72,0,0,0,1.35-4.34.46.46,0,0,0-.84-.23c-.58.95-1.18,1.89-1.82,2.81-.33.47.45.92.78.45Z"/><path class="b" d="M105.82,116.41l.59-.61c.41-.41-.23-1-.63-.63l-.6.6a.45.45,0,0,0,.64.64Z"/><path class="b" d="M101.08,112.42c.47,1.5,1.19,2.9,2.78,3.41a.45.45,0,0,0,.44-.75,11.06,11.06,0,0,1-2.4-3.24c-.21-.46-1-.13-.82.35.38,1.14,1.48,1.48,2.12,2.41.33.48,1.11,0,.78-.45-.56-.82-1.71-1.24-2-2.2l-.83.35a12,12,0,0,0,2.54,3.41l.44-.75c-1.26-.4-1.78-1.61-2.15-2.78-.18-.55-1-.32-.87.24Z"/><path class="b" d="M104.21,115.64a5,5,0,0,1-2.51-2.74.45.45,0,0,0-.87.24,5.84,5.84,0,0,0,2.93,3.27c.49.31.95-.47.45-.77Z"/><path class="b" d="M104,133.13a3.47,3.47,0,0,1-.73-1.82c-.05-.57-1-.57-.9,0a4.36,4.36,0,0,0,.85,2.28c.34.46,1.13,0,.78-.46Z"/><path class="b" d="M105.34,134.2a15,15,0,0,0,1.34-2.69c.21-.54-.66-.78-.87-.24a13.72,13.72,0,0,1-1.25,2.48c-.31.49.47.94.78.45Z"/><path class="b" d="M104.59,133.64l-.71,1.35c-.27.51.51,1,.78.45l.71-1.34c.27-.52-.51-1-.78-.46Z"/><path class="b" d="M102.9,133.08a7.88,7.88,0,0,1,.83,2.31c.11.56,1,.32.87-.24a8.67,8.67,0,0,0-.92-2.52c-.28-.51-1.06,0-.78.45Z"/><path class="b" d="M104.17,135.74a.45.45,0,0,0,0-.9.45.45,0,0,0,0,.9Z"/><path class="b" d="M102.57,132.41c.21.78.43,1.56.67,2.33.14.44.27,1.1.84,1.15s.81-.59,1-1c.36-.72.71-1.45,1-2.18.24-.53-.53-1-.78-.46s-.42.91-.63,1.36l-.36.72c-.07.14-.34.5-.31.62.18.09.23.07.15-.08a3.58,3.58,0,0,1-.11-.35c-.08-.23-.15-.46-.22-.69-.16-.55-.31-1.09-.45-1.64a.45.45,0,0,0-.87.24Z"/><path class="b" d="M106.92,113.66a.45.45,0,0,0,0-.9.45.45,0,0,0,0,.9Z"/><path class="b" d="M105.2,132.86a.45.45,0,0,0,0-.9.45.45,0,0,0,0,.9Z"/><path class="b" d="M103.82,133a.45.45,0,0,0,0-.9.45.45,0,0,0,0,.9Z"/><path class="b" d="M103.52,132.94a.45.45,0,0,0,0-.9.45.45,0,0,0,0,.9Z"/><path class="b" d="M105.37,132.84a.45.45,0,0,0,0-.9.45.45,0,0,0,0,.9Z"/><path class="b" d="M103.45,132.81a.45.45,0,0,0,0-.9.45.45,0,0,0,0,.9Z"/><path class="b" d="M105.74,115.35a5.57,5.57,0,0,1-.51.46c-.46.36.18,1,.63.64a4.69,4.69,0,0,0,.52-.47.45.45,0,0,0-.64-.63Z"/><path class="b" d="M101.67,112.87a2.82,2.82,0,0,1,.2-.6c.26-.52-.52-1-.77-.46a4,4,0,0,0-.3.82c-.12.56.75.8.87.24Z"/><path class="b" d="M101.63,112.9l.17-.81c.12-.57-.75-.81-.87-.24l-.17.81c-.11.57.75.81.87.24Z"/><path class="b" d="M101.64,112.59a2.17,2.17,0,0,1,.07-.35.45.45,0,0,0-.87-.24,4,4,0,0,0-.1.59c-.06.58.84.58.9,0Z"/></symbol></defs><title>Klik_her</title><use width="200" height="200" transform="translate(-335 -137.5) scale(2)" xlink:href="#a"/><path class="b" d="M27.1,27.49a.22.22,0,0,1,0,.09.35.35,0,0,1-.12.09,2.58,2.58,0,0,1-.33.16c-.15.08-.37.17-.65.29A5.32,5.32,0,0,0,23.92,30q-.12.18-.45.75l-.87,1.53a9.08,9.08,0,0,1-5.31,4.35v0a2.47,2.47,0,0,1,1.53,2.07,2.84,2.84,0,0,1-.09.69l-.15.54a11.49,11.49,0,0,0-.39,2.37q0,1.11,0,2.1a10.89,10.89,0,0,0,1.11,4.23Q20.5,51,22.6,51a3.94,3.94,0,0,0,1.92-.51,3.33,3.33,0,0,0,1.38-1.35,1.54,1.54,0,0,1,.18.69,2.12,2.12,0,0,1-1.14,1.65,5.56,5.56,0,0,1-2,.75l-.36,0H22.3q-3.12,0-4.68-3.81a12.37,12.37,0,0,1-.73-2.44,16.09,16.09,0,0,1-.29-2.75,22.74,22.74,0,0,1,.6-5.22.82.82,0,0,0-.45-.93A3.23,3.23,0,0,0,15.61,37l-.37-.06-.41-.09a46.65,46.65,0,0,1-2.52,4.29,10.12,10.12,0,0,1-3,2.94,7.45,7.45,0,0,1-2.79.81,8,8,0,0,1-1.59.07,6.55,6.55,0,0,1-1.32-.19,4.79,4.79,0,0,1-1.05-.42q-.81-.39-.84-.57A3.29,3.29,0,0,1,.58,41.23a4.12,4.12,0,0,1,3-4A3.51,3.51,0,0,1,5.26,37q2.37.36,2.25,2.37A3.4,3.4,0,0,0,5.17,38a3.13,3.13,0,0,0-2.4.87,3,3,0,0,0-1,2.31A2.38,2.38,0,0,0,2.53,43a3.67,3.67,0,0,0,3,.84q2.73-.21,4.86-3.42.39-.6,1-1.62t1.38-2.55q.93-1.71,1.47-2.73T15,32.17q.42-.69.81-1.26a11.54,11.54,0,0,1,.75-1l-1.72-.3c-.73-.12-1.63-.28-2.69-.48a5.93,5.93,0,0,0-1-.15,5.46,5.46,0,0,0-.81,0A5.73,5.73,0,0,0,8,29.62a2.45,2.45,0,0,0-1.44,1.77,1.29,1.29,0,0,0,.72,1.44,3.09,3.09,0,0,0,1.74.3,3.26,3.26,0,0,0,1.55-.61,2.91,2.91,0,0,0,1-1.25.49.49,0,0,0,.06-.39.69.69,0,0,0-.45-.27,1,1,0,0,0-1,.36,1,1,0,0,0-.27.36q-.3-.21-.06-.69a1.91,1.91,0,0,1,.81-.72,1.52,1.52,0,0,1,1.05-.15,1.17,1.17,0,0,1,.84.54,1.28,1.28,0,0,1,0,1.05,4.09,4.09,0,0,1-1.47,1.83A4.65,4.65,0,0,1,8.86,34a4,4,0,0,1-1.95-.24,2.79,2.79,0,0,1-1.5-1.26,1.83,1.83,0,0,1-.15-1.41,4.53,4.53,0,0,1,2.85-2.91,10,10,0,0,1,4.32-.66,27.79,27.79,0,0,1,2.82.36,20.34,20.34,0,0,0,2.85.27l.36,0,.51,0,.53,0a3.47,3.47,0,0,1,.43,0q.6.09.45.21-1.71,1.26-4.26,6.12l-.9,1.71a.6.6,0,0,1,.23,0l.43,0h.21l.39,0q2-.27,3.54-3.06,2.46-4.53,5.79-5.34a4.05,4.05,0,0,1,1.11-.18A.24.24,0,0,1,27.1,27.49Z"/><path class="b" d="M26.68,32.44a13.42,13.42,0,0,1-1.5,4,18,18,0,0,1-4.65,5.76,2.74,2.74,0,0,0-.33.72.14.14,0,0,0,.12.15A3.1,3.1,0,0,0,22,42.61l.78-.37.42-.2q.54-.12.54.3a.69.69,0,0,1-.18.45,6.88,6.88,0,0,1-3.84,1.47,1,1,0,0,1-.84-.33q-.3-.39,0-1.35a1.93,1.93,0,0,0,.17-.37c.09-.23.23-.57.43-1a37.23,37.23,0,0,1,2.22-4.47q1.38-2.37,1.5-2.49,1.92-3.06,2.94-3.06Q26.89,31.18,26.68,32.44Zm-.69.12a.24.24,0,0,0,0-.15q-.81.63-4,6.63c-.16.32-.31.62-.46.9a6.23,6.23,0,0,0-.38.84,9.47,9.47,0,0,0,1.1-1.1,13.31,13.31,0,0,0,1.18-1.6q.87-1.32,1.47-2.46a12.26,12.26,0,0,0,.9-2.13,4.52,4.52,0,0,0,.17-.55C26,32.79,26,32.66,26,32.56Z"/><path class="b" d="M27.22,42.28q0,.42-1.29,1.14A4.81,4.81,0,0,1,23,44.2q-.57,0-.42-.81,0-.12,1-1.89l.81-1.41c.2-.36.43-.74.68-1.14s.54-.83.88-1.29a1,1,0,0,1,.87-.18q.45.09.39.33t-2.13,3.63a12.32,12.32,0,0,0-.93,1.62q.36.15,1.29-.39L26.68,42Q27.22,41.86,27.22,42.28Zm2-7.41a1.7,1.7,0,0,1-.33.87Q28.06,37,27.13,37a.37.37,0,0,1-.42-.42,1.7,1.7,0,0,1,.33-.87q.84-1.29,1.77-1.29A.37.37,0,0,1,29.23,34.87Z"/><path class="b" d="M35.38,32.41A3.69,3.69,0,0,1,34.93,34a5.79,5.79,0,0,1-2.61,2.73,2.48,2.48,0,0,1-.49.22l-.62.26-.42.69a3.3,3.3,0,0,1,1.77-.66Q34,37.36,34,38.53a2.08,2.08,0,0,1-.36,1.11A2.66,2.66,0,0,1,32.17,41Q32,41,32,41.05l.14.09a1.37,1.37,0,0,1,.21.15,1.2,1.2,0,0,1,.16.17s0,.08,0,.1a1.4,1.4,0,0,1-.39.75,1.73,1.73,0,0,0-.39.6q0,.09.12.09a13.1,13.1,0,0,0,1.89-1q.51-.15.51.3T33.1,43.39l-.73.33-.92.39q-1.5.33-1.68-.21-.15-.36.36-1,.33-.42.48-.66l.18-.3.06-.18a.15.15,0,0,0-.07-.12.83.83,0,0,0-.41-.06l-1.23,0a3.6,3.6,0,0,1-.57,0l-.78,1.32-.3.54a4.06,4.06,0,0,1-.55.72,1.13,1.13,0,0,1-.89.12q-.24,0-.27-.09t.09-.48c.2-.32.41-.66.63-1s.44-.76.66-1.16c.14-.22.41-.67.8-1.35s.92-1.59,1.6-2.73q-.9-.15-1-.66l.23.05H29a4.32,4.32,0,0,0,1-.12l.45-.75,1.11-1.86.45-.72.54-.9.21-.3q1-1.32,1.8-1.11T35.38,32.41ZM32.2,39.19q0-.63-.69-.63a2.34,2.34,0,0,0-1.65.9L29,40.87Q32.2,40.72,32.2,39.19Zm2.64-6.75a1,1,0,0,0,0-.29.13.13,0,0,0-.17-.1q-.51.15-1.47,1.92h0l-.24.45q-.18.33-.51.84l-.54.9A5.31,5.31,0,0,0,33,35.53a5,5,0,0,0,1-.88,5.11,5.11,0,0,0,.66-1A2.75,2.75,0,0,0,34.84,32.44Z"/><path class="b" d="M47.35,32.41A3.69,3.69,0,0,1,46.9,34a5.79,5.79,0,0,1-2.61,2.73,2.48,2.48,0,0,1-.49.22l-.62.26-.57.93a3.5,3.5,0,0,1,2.16-.9q1,.09.93,1.44A4.74,4.74,0,0,1,44.83,41l-1,1.47a1.18,1.18,0,0,0-.3.57.08.08,0,0,0,.09.09A5.19,5.19,0,0,0,45,42.43a3.94,3.94,0,0,1,.63-.36.42.42,0,0,1,.18,0q.36,0,.3.33,0,.12-.21.45a8.73,8.73,0,0,1-2.76,1.41q-1.53.36-1.65-.21T42.55,42A9.52,9.52,0,0,0,44,39.61q.21-1-.57-1t-1.74,1.14l-2.19,3.69a3,3,0,0,1-.52.71,1.18,1.18,0,0,1-.92.13q-.24,0-.27-.09t.09-.48c.2-.32.41-.66.63-1s.44-.76.66-1.16c.14-.22.41-.67.8-1.35s.92-1.59,1.6-2.73q-.9-.15-1.05-.66l.23.05H41a4.32,4.32,0,0,0,1-.12L42.4,36l1.11-1.86.45-.72.54-.9.21-.3q1-1.32,1.8-1.11T47.35,32.41Zm-.54,0a1,1,0,0,0,0-.29.13.13,0,0,0-.17-.1q-.51.15-1.47,1.92h0l-.24.45q-.18.33-.51.84l-.54.9A5.31,5.31,0,0,0,45,35.53a5,5,0,0,0,.95-.88,5.11,5.11,0,0,0,.66-1A2.75,2.75,0,0,0,46.81,32.44Z"/><path class="b" d="M52.3,42.28q0,.39-.66.81a8.46,8.46,0,0,1-3.9,1.23q-2.1.09-2.34-1.59a4.41,4.41,0,0,1,.93-3,6.19,6.19,0,0,1,.75-.94A8.32,8.32,0,0,1,48,38a2.65,2.65,0,0,1,2.22-.72,1.47,1.47,0,0,1,1,.66,1.6,1.6,0,0,1,.19,1.17,3.18,3.18,0,0,1-.54,1.23,3.55,3.55,0,0,1-2.64,1.5,1.4,1.4,0,0,1-1.14-.3q-.15,1.5,1.44,1.62a4.87,4.87,0,0,0,2.73-.84,3.64,3.64,0,0,1,.54-.3Q52.3,41.86,52.3,42.28Zm-2-2.82q.27-1-.72-1a2.18,2.18,0,0,0-1.59,1q-.81,1-.78,1.35t.54.24a2.27,2.27,0,0,0,1-.21,2.84,2.84,0,0,0,1.53-1.38Z"/><path class="b" d="M59.41,41.62q.09.39-1,1.38l-.66.48a4.7,4.7,0,0,1-2,.9q-1.17,0-1.35-1.29A4.29,4.29,0,0,1,55.06,41l.75-1.35.24-.57a5.45,5.45,0,0,0-.61-.24l-.5-.15q-.42.87-1.14,2.19a7.59,7.59,0,0,1-1,1.23Q52,43,51.67,43q-.6,0-.54-.54l.15-.15q.36-.33.81-.81t1-1.14a4.63,4.63,0,0,0,.35-.57c.09-.18.17-.37.25-.57a10.52,10.52,0,0,0,.51-1.68l.09-.6a2.51,2.51,0,0,0,.12-.51.52.52,0,0,1,.39-.3.46.46,0,0,1,.56.31,1.12,1.12,0,0,1,.1.77l-.09.42a1.43,1.43,0,0,0,.39.18l.09-.06c.08,0,.25.09.5.19a4.72,4.72,0,0,0,.46.2l.72.18a.56.56,0,0,1,.27.39,3.17,3.17,0,0,1-.48,1l-.75,1.29q-1.08,2-.81,2.25t1.08-.3q.27-.15,1.92-1.53a.45.45,0,0,1,.42,0A.27.27,0,0,1,59.41,41.62Z"/><use width="200" height="200" transform="matrix(0.74, -0.1, -0.1, -0.74, -25.37, 123)" xlink:href="#a"/></svg>
